Coordinates
version=1
nRows=11
nColumns=36
inDegrees=yes

Units are S.I. units (second, meters, Newtons, ...)
If the header above contains a line with 'inDegrees', this indicates whether rotational values are in degrees (yes) or radians (no).

endheader
time	pelvis_tilt	pelvis_list	pelvis_rotation	pelvis_tx	pelvis_ty	pelvis_tz	hip_flexion_r	hip_adduction_r	hip_rotation_r	knee_angle_r	knee_angle_r_beta	ankle_angle_r	subtalar_angle_r	mtp_angle_r	hip_flexion_l	hip_adduction_l	hip_rotation_l	knee_angle_l	knee_angle_l_beta	ankle_angle_l	subtalar_angle_l	mtp_angle_l	lumbar_extension	lumbar_bending	lumbar_rotation	arm_flex_r	arm_add_r	arm_rot_r	elbow_flex_r	pro_sup_r	arm_flex_l	arm_add_l	arm_rot_l	elbow_flex_l	pro_sup_l
      2.83333330	      2.90604144	     -9.14426192	     19.26077074	      1.49757374	      0.93252270	     -0.08072163	     55.56207898	     -5.96598556	      2.22984059	     41.16447975	      0.71845571	     -6.02584415	     -6.86651641	     -7.49998576	     26.86741159	      1.20307741	     12.11877636	     43.50307790	      0.75927194	     16.06947728	     -7.98652017	     -7.49998576	    -16.59071273	      3.47014637	     -5.86656066	     49.47050249	      6.73742925	     62.56479411	    121.52242413	     89.84075042	     63.61941280	     -4.03937812	     67.28878200	    124.81437111	     89.67494495
      2.85000000	      2.89488611	     -9.37544602	     18.88479108	      1.50270324	      0.93639521	     -0.07916806	     54.54531928	     -5.31224878	      1.89545491	     41.30621529	      0.72092946	     -5.95029960	     -7.37924795	     -7.49998665	     25.99438059	      0.55627343	     11.81947140	     42.08640471	      0.73454633	     15.84823056	     -7.92719598	     -7.49998665	    -15.38796462	      3.83705256	     -5.42593342	     48.44361202	      7.10634081	     63.65882745	    122.04814729	     89.44621090	     62.33317503	     -2.22746141	     69.10475834	    125.77701145	     89.44435370
      2.86666670	      2.75036605	     -9.61369342	     18.60911145	      1.50336139	      0.94483690	     -0.07964906	     53.34055627	     -4.67640151	      1.45753556	     40.89020516	      0.71366871	     -6.00834626	     -7.62711720	     -7.49998685	     25.12137386	      0.06060690	     11.69471617	     40.45383002	      0.70605253	     15.32944863	     -7.81292108	     -7.49998685	    -14.46796327	      4.33905031	     -5.08132210	     47.79012225	      6.97312490	     63.94252222	    121.65522974	     89.55365429	     61.24834544	     -1.90851260	     70.89576870	    125.87202517	     89.83928060
      2.88333330	      2.75038423	     -9.78965230	     18.28530828	      1.49992918	      0.94847954	     -0.08187121	     52.43266844	     -4.04790564	      1.26765307	     41.07516890	      0.71689694	     -6.91583650	     -8.70791241	     -7.49998715	     24.66187797	     -0.21091785	     11.57631572	     39.43301820	      0.68823600	     14.53686983	     -8.03471286	     -7.49998715	    -13.86614064	      4.89709063	     -4.57270933	     47.89284200	      6.60835515	     64.16214949	    121.26192715	     89.75088477	     61.41304286	     -0.04125955	     72.78757796	    126.32056714	     90.40407178
      2.90000000	      2.84410574	     -9.81426546	     18.07695842	      1.50082163	      0.95464936	     -0.08202202	     51.30246685	     -3.58506781	      0.83974074	     41.18082598	      0.71874100	     -7.43959980	     -9.29830431	     -7.49998751	     23.89963393	     -0.42736082	     11.42049610	     38.14852796	      0.66581742	     13.89587782	     -7.89950867	     -7.49998751	    -13.53510572	      5.26487024	     -4.31744852	     48.29589588	      6.69987094	     63.39614457	    120.84683575	     89.80046254	     61.93663722	      1.30996963	     73.46875429	    126.46592003	     90.94847689
      2.91666670	      3.01178743	     -9.94707958	     17.67792532	      1.51022596	      0.96389093	     -0.08216785	     49.66502360	     -2.90445334	      0.22735480	     40.63342611	      0.70918707	     -8.25453579	    -10.25289851	     -7.49998778	     22.24565281	     -1.12333476	     11.08952213	     35.89984316	      0.62657046	     13.18526712	     -7.31073354	     -7.49998778	    -13.00641929	      5.55964981	     -4.71308177	     47.77226663	      6.51454203	     62.73117257	    121.03201022	     89.46059121	     61.46735585	     -2.94609463	     67.98248341	    123.33480279	     90.77352992
      2.93333330	      2.97108710	    -10.15343980	     17.38746118	      1.51771742	      0.96574231	     -0.08854456	     48.14649311	     -2.42706117	     -0.21391897	     40.26293862	      0.70272085	     -8.88110807	    -11.17080880	     -7.49998826	     21.09873676	     -1.54064502	     10.95077125	     34.29762514	      0.59860648	     12.41700444	     -7.01888083	     -7.49998826	    -11.68912097	      6.46987730	     -4.39531039	     47.69438960	      6.77031456	     64.05595730	    119.96070986	     89.75919578	     60.77829721	     -1.77577616	     67.72556390	    125.25611277	     91.37566958
      2.95000000	      2.76555616	    -10.18479395	     17.06975103	      1.52116401	      0.96177715	     -0.09198516	     47.48397098	     -2.23703576	     -0.19252569	     41.07760809	      0.71693951	     -8.67161212	    -11.82930442	     -7.49998852	     20.66921741	     -1.53421913	     10.89262316	     33.68275751	      0.58787502	     12.49425644	     -7.02170602	     -7.49998852	    -10.00657058	      6.82832825	     -4.04317271	     47.08577502	      6.62207370	     65.25596139	    119.99856006	     90.21014593	     59.32301611	      0.34644839	     69.23761741	    125.24692145	     92.29022511
      2.96666670	      2.73348177	    -10.16782162	     16.77101815	      1.52448774	      0.96074238	     -0.09483367	     46.99168161	     -2.05225348	     -0.14862753	     42.44466531	      0.74079916	     -8.03652202	    -12.42898372	     -7.49998863	     20.31159278	     -1.42585698	     10.84860700	     33.55341350	      0.58561754	     12.98596802	     -7.22144173	     -7.49998863	     -8.82602193	      7.09022391	     -4.26547623	     46.26212037	      6.41639843	     65.66364515	    120.22930836	     90.28683064	     57.86369343	      0.32886455	     69.77790188	    124.93012605	     92.54260221
      2.98333330	      2.38155445	    -10.19722847	     16.64679433	      1.52488441	      0.96328964	     -0.09513349	     46.66985642	     -2.01299277	     -0.31097666	     43.17062985	      0.75346963	     -7.65817945	    -12.90493269	     -7.49998881	     20.26267668	     -1.25994041	     10.94872407	     33.21504476	      0.57971189	     13.41086294	     -7.38231958	     -7.49998881	     -7.57237499	      7.35330091	     -4.92363079	     46.07914137	      6.62811129	     65.84362299	    120.31811012	     90.41116952	     57.66377116	      1.19086883	     70.36805134	    125.25179247	     92.94001856
      3.00000000	      2.24363237	    -10.30922472	     16.52283836	      1.53249582	      0.96433680	     -0.09564968	     46.00861776	     -1.73672164	     -0.56609245	     43.50944345	      0.75938304	     -7.11530627	    -13.45535880	     -7.49998966	     19.62689000	     -1.51829394	     10.83751034	     32.36269006	      0.56483550	     13.79590851	     -7.25930682	     -7.49998966	     -6.72344126	      7.61716254	     -6.73853061	     45.74822407	      6.99358109	     65.44330478	    120.14191324	     89.26832144	     57.16581712	     -3.19702045	     64.27569763	    122.62023744	     92.38741008
